# xmcd CD database file
#
# Track frame offsets:
#	150
#	17843
#	39998
#	61673
#	80168
#	106336
#	148764
#	175764
#	184959
#
# Disc length: 2760 seconds
#
# Revision: 0
# Processed by: cddbd v1.5.2PL0 Copyright (c) Steve Scherf et al.
# Submitted via: CDex 1.70
#
DISCID=740ac609
DTITLE=Pablo Held - Elders
DYEAR=2013
DGENRE=Jazz
TTITLE0=Morning Hour
TTITLE1=Hunters
TTITLE2=Poem Number Five
TTITLE3=Work Song
TTITLE4=Secreto
TTITLE5=Nana
TTITLE6=The Elders
TTITLE7=Pastorale
TTITLE8=Marcie
EXTD=YEAR: 2013
EXTT0=
EXTT1=
EXTT2=
EXTT3=
EXTT4=
EXTT5=
EXTT6=
EXTT7=
EXTT8=
PLAYORDER=
